<svg width="60" height="60" viewBox="0 0 60 60" fill="none" xmlns="http://www.w3.org/2000/svg">
<rect width="60" height="60" rx="8" fill="white"/>
<path d="M10.1629 16.5823C10.1629 15.3962 10.6348 14.2586 11.4748 13.4198C12.3149 12.5811 13.4542 12.1099 14.6422 12.1099C15.8302 12.1099 16.9696 12.5811 17.8096 13.4198C18.6496 14.2586 19.1216 15.3962 19.1216 16.5823C19.1216 17.7685 18.6496 18.9061 17.8096 19.7449C16.9696 20.5836 15.8302 21.0548 14.6422 21.0548C13.4542 21.0548 12.3149 20.5836 11.4748 19.7449C10.6348 18.9061 10.1629 17.7685 10.1629 16.5823ZM9.52295 29.1772C8.72307 30.0716 8.24314 31.2616 8.24314 32.5555C8.24314 33.8493 8.72307 35.0393 9.52295 35.9338V29.1692V29.1772ZM21.0733 25.2398C18.6976 27.3402 17.2019 30.4151 17.2019 33.8333C17.2019 36.5727 18.1617 39.0885 19.7615 41.0612V42.7783C19.7615 44.1919 18.6176 45.334 17.2019 45.334H12.0826C10.6668 45.334 9.52295 44.1919 9.52295 42.7783V40.6379C6.49939 39.2003 4.40369 36.1255 4.40369 32.5555C4.40369 27.6118 8.41111 23.6105 13.3624 23.6105H15.922C17.8418 23.6105 19.6175 24.2095 21.0733 25.2318V25.2398ZM40.2385 42.7783V41.0612C41.8383 39.0885 42.7982 36.5727 42.7982 33.8333C42.7982 30.4151 41.3024 27.3402 38.9267 25.2318C40.3825 24.2095 42.1583 23.6105 44.078 23.6105H46.6376C51.5889 23.6105 55.5963 27.6118 55.5963 32.5555C55.5963 36.1255 53.5006 39.2003 50.4771 40.6379V42.7783C50.4771 44.1919 49.3332 45.334 47.9174 45.334H42.7982C41.3824 45.334 40.2385 44.1919 40.2385 42.7783ZM40.8785 16.5823C40.8785 15.3962 41.3504 14.2586 42.1904 13.4198C43.0305 12.5811 44.1698 12.1099 45.3578 12.1099C46.5458 12.1099 47.6852 12.5811 48.5252 13.4198C49.3652 14.2586 49.8372 15.3962 49.8372 16.5823C49.8372 17.7685 49.3652 18.9061 48.5252 19.7449C47.6852 20.5836 46.5458 21.0548 45.3578 21.0548C44.1698 21.0548 43.0305 20.5836 42.1904 19.7449C41.3504 18.9061 40.8785 17.7685 40.8785 16.5823ZM50.4771 29.1772V35.9418C51.277 35.0393 51.7569 33.8573 51.7569 32.5635C51.7569 31.2696 51.277 30.0796 50.4771 29.1851V29.1772ZM30 12.1099C31.3577 12.1099 32.6598 12.6484 33.6199 13.607C34.5799 14.5655 35.1193 15.8656 35.1193 17.2213C35.1193 18.5769 34.5799 19.877 33.6199 20.8356C32.6598 21.7941 31.3577 22.3327 30 22.3327C28.6423 22.3327 27.3402 21.7941 26.3801 20.8356C25.4201 19.877 24.8808 18.5769 24.8808 17.2213C24.8808 15.8656 25.4201 14.5655 26.3801 13.607C27.3402 12.6484 28.6423 12.1099 30 12.1099ZM23.6009 33.8333C23.6009 35.1271 24.0809 36.3092 24.8808 37.2116V30.447C24.0809 31.3495 23.6009 32.5315 23.6009 33.8253V33.8333ZM35.1193 30.455V37.2196C35.9192 36.3171 36.3991 35.1351 36.3991 33.8413C36.3991 32.5475 35.9192 31.3575 35.1193 30.463V30.455ZM40.2385 33.8333C40.2385 37.4033 38.1428 40.4781 35.1193 41.9157V45.334C35.1193 46.7476 33.9754 47.8897 32.5597 47.8897H27.4404C26.0246 47.8897 24.8808 46.7476 24.8808 45.334V41.9157C21.8572 40.4781 19.7615 37.4033 19.7615 33.8333C19.7615 28.8896 23.7689 24.8884 28.7202 24.8884H31.2798C36.2311 24.8884 40.2385 28.8896 40.2385 33.8333Z" fill="#212529"/>
</svg>
