<svg width="500" height="91" viewBox="0 0 500 91" fill="none" xmlns="http://www.w3.org/2000/svg">
<path d="M14.6973 11.375C14.6973 8.35816 15.9017 5.46489 18.0454 3.33166C20.1892 1.19843 23.0968 0 26.1285 0C29.1603 0 32.0679 1.19843 34.2117 3.33166C36.3554 5.46489 37.5598 8.35816 37.5598 11.375C37.5598 14.3918 36.3554 17.2851 34.2117 19.4183C32.0679 21.5516 29.1603 22.75 26.1285 22.75C23.0968 22.75 20.1892 21.5516 18.0454 19.4183C15.9017 17.2851 14.6973 14.3918 14.6973 11.375ZM13.0643 43.4078C11.023 45.6828 9.79821 48.7094 9.79821 52C9.79821 55.2906 11.023 58.3172 13.0643 60.5922V43.3875V43.4078ZM42.5405 33.3937C36.4779 38.7359 32.6607 46.5563 32.6607 55.25C32.6607 62.2172 35.1102 68.6156 39.1928 73.6328V78C39.1928 81.5953 36.2738 84.5 32.6607 84.5H19.5964C15.9833 84.5 13.0643 81.5953 13.0643 78V72.5563C5.34819 68.9 0 61.0797 0 52C0 39.4266 10.2269 29.25 22.8625 29.25H29.3946C34.2937 29.25 38.8254 30.7734 42.5405 33.3734V33.3937ZM91.4499 78V73.6328C95.5325 68.6156 97.9821 62.2172 97.9821 55.25C97.9821 46.5563 94.1648 38.7359 88.1022 33.3734C91.8174 30.7734 96.349 29.25 101.248 29.25H107.78C120.416 29.25 130.643 39.4266 130.643 52C130.643 61.0797 125.295 68.9 117.578 72.5563V78C117.578 81.5953 114.659 84.5 111.046 84.5H97.9821C94.369 84.5 91.4499 81.5953 91.4499 78ZM93.083 11.375C93.083 8.35816 94.2873 5.46489 96.4311 3.33166C98.5749 1.19843 101.482 0 104.514 0C107.546 0 110.454 1.19843 112.597 3.33166C114.741 5.46489 115.945 8.35816 115.945 11.375C115.945 14.3918 114.741 17.2851 112.597 19.4183C110.454 21.5516 107.546 22.75 104.514 22.75C101.482 22.75 98.5749 21.5516 96.4311 19.4183C94.2873 17.2851 93.083 14.3918 93.083 11.375ZM117.578 43.4078V60.6125C119.62 58.3172 120.845 55.3109 120.845 52.0203C120.845 48.7297 119.62 45.7031 117.578 43.4281V43.4078ZM65.3214 0C68.7862 0 72.1092 1.36964 74.5592 3.80761C77.0092 6.24558 78.3856 9.55219 78.3856 13C78.3856 16.4478 77.0092 19.7544 74.5592 22.1924C72.1092 24.6304 68.7862 26 65.3214 26C61.8565 26 58.5336 24.6304 56.0835 22.1924C53.6335 19.7544 52.2571 16.4478 52.2571 13C52.2571 9.55219 53.6335 6.24558 56.0835 3.80761C58.5336 1.36964 61.8565 0 65.3214 0ZM48.991 55.25C48.991 58.5406 50.2158 61.5469 52.2571 63.8422V46.6375C50.2158 48.9328 48.991 51.9391 48.991 55.2297V55.25ZM78.3856 46.6578V63.8625C80.4269 61.5672 81.6517 58.5609 81.6517 55.2703C81.6517 51.9797 80.4269 48.9531 78.3856 46.6781V46.6578ZM91.4499 55.25C91.4499 64.3297 86.1017 72.15 78.3856 75.8063V84.5C78.3856 88.0953 75.4666 91 71.8535 91H58.7892C55.1761 91 52.2571 88.0953 52.2571 84.5V75.8063C44.541 72.15 39.1928 64.3297 39.1928 55.25C39.1928 42.6766 49.4197 32.5 62.0553 32.5H68.5874C81.223 32.5 91.4499 42.6766 91.4499 55.25Z" fill="#212529"/>
<path d="M162.222 8.73615H176.607V86.8001H162.222V8.73615Z" fill="#212529"/>
<path d="M208.864 76.6082H231.902V86.8001H187.175L212.517 41.6642H191.895V31.0242H234.15L208.864 76.6082Z" fill="#212529"/>
<path d="M243.515 7.05615H259.249V21.9521H243.515V7.05615ZM244.077 31.0242H258.687V86.8001H244.077V31.0242Z" fill="#212529"/>
<path d="M305.243 29.6801C310.825 29.6801 315.02 31.4535 317.83 35.0002C320.677 38.5095 322.1 43.4935 322.1 49.9522V86.8001H307.716V51.1842C307.716 48.0108 307.041 45.4908 305.693 43.6242C304.344 41.7202 302.359 40.7682 299.737 40.7682C297.976 40.7682 296.328 41.2162 294.792 42.1122C293.293 43.0081 292.095 44.2588 291.196 45.8642C290.297 47.4322 289.847 49.2055 289.847 51.1842V86.8001H275.462V31.0242H288.499L288.779 38.3601C292.638 32.5735 298.126 29.6801 305.243 29.6801Z" fill="#212529"/>
<path d="M365.883 88.1442C360.227 88.1442 354.982 86.6322 350.15 83.6082C345.318 80.5468 341.422 75.8988 338.462 69.6642C335.54 63.4295 334.079 55.7762 334.079 46.7042C334.079 38.4535 335.54 31.3788 338.462 25.4802C341.384 19.5442 345.336 15.0455 350.318 11.9841C355.338 8.92281 360.938 7.39215 367.119 7.39215C370.903 7.39215 374.106 7.76548 376.728 8.51215C379.35 9.22148 381.411 10.0615 382.909 11.0322C384.407 11.9655 385.85 13.0668 387.236 14.3362L380.942 26.0961C379.631 24.6775 378.47 23.5948 377.458 22.8481C376.447 22.0641 375.155 21.4481 373.581 21.0001C372.045 20.5148 370.079 20.2721 367.681 20.2721C363.935 20.2721 360.714 21.3735 358.017 23.5761C355.319 25.7415 353.259 28.7655 351.836 32.6482C350.412 36.4935 349.7 40.9175 349.7 45.9202C349.7 52.1922 350.431 57.5495 351.892 61.9922C353.39 66.4348 355.394 69.7762 357.904 72.0162C360.452 74.2562 363.299 75.3762 366.445 75.3762C369.779 75.3762 372.72 74.9095 375.267 73.9762C377.852 73.0428 379.818 71.8668 381.167 70.4481L387.348 81.5362C385.063 83.4028 382.291 84.9708 379.032 86.2402C375.81 87.5095 371.427 88.1442 365.883 88.1442Z" fill="#343A40"/>
<path d="M408.739 88.3682C405.405 88.3682 402.596 87.6215 400.31 86.1282C398.025 84.6348 396.302 82.6188 395.141 80.0802C394.017 77.5415 393.455 74.7042 393.455 71.5682C393.455 68.8428 394.354 66.1361 396.152 63.4481C397.988 60.7228 401.228 58.4082 405.873 56.5042C410.518 54.6002 416.793 53.6481 424.697 53.6481V51.0722C424.697 48.0108 423.948 45.6402 422.449 43.9601C420.989 42.2801 418.404 41.4401 414.695 41.4401C411.773 41.4401 408.908 41.9442 406.098 42.9522C403.326 43.9228 401.284 45.1361 399.973 46.5921L395.478 35.8402C398.025 34.1228 401.191 32.6668 404.974 31.4722C408.758 30.2775 412.785 29.6801 417.055 29.6801C422.412 29.6801 426.645 30.5015 429.754 32.1441C432.901 33.7868 435.111 36.1015 436.385 39.0882C437.658 42.0748 438.295 45.7708 438.295 50.1762V86.8001H426.27L425.259 78.8482C423.274 82.0588 420.914 84.4482 418.179 86.0162C415.482 87.5842 412.335 88.3682 408.739 88.3682ZM414.695 77.6162C416.418 77.6162 418.235 76.9255 420.146 75.5442C422.056 74.1628 423.573 72.4268 424.697 70.3362V62.3842C424.173 62.3095 423.274 62.2721 422 62.2721C418.216 62.2721 414.826 62.9068 411.829 64.1762C408.87 65.4082 407.39 67.4242 407.39 70.2242C407.39 72.8748 407.971 74.7788 409.132 75.9362C410.331 77.0562 412.185 77.6162 414.695 77.6162Z" fill="#343A40"/>
<path d="M483.143 29.6801C488.725 29.6801 492.92 31.4535 495.73 35.0002C498.577 38.5095 500 43.4935 500 49.9522V86.8001H485.615V51.1842C485.615 48.0108 484.941 45.4908 483.593 43.6242C482.244 41.7202 480.259 40.7682 477.636 40.7682C475.876 40.7682 474.227 41.2162 472.692 42.1122C471.193 43.0081 469.994 44.2588 469.095 45.8642C468.196 47.4322 467.747 49.2055 467.747 51.1842V86.8001H453.362V31.0242H466.398L466.679 38.3601C470.538 32.5735 476.026 29.6801 483.143 29.6801Z" fill="#343A40"/>
</svg>
